<svg id="visual" viewBox="0 0 450 900" width="450" height="900" xmlns="http://www.w3.org/2000/svg" xmlns:xlink="http://www.w3.org/1999/xlink" version="1.1"><rect x="0" y="0" width="450" height="900" fill="#ffffff"></rect><path d="M0 677L15 674.7C30 672.3 60 667.7 90 671.5C120 675.3 150 687.7 180 695.7C210 703.7 240 707.3 270 706C300 704.7 330 698.3 360 689.8C390 681.3 420 670.7 435 665.3L450 660L450 0L435 0C420 0 390 0 360 0C330 0 300 0 270 0C240 0 210 0 180 0C150 0 120 0 90 0C60 0 30 0 15 0L0 0Z" fill="#e0edf1"></path><path d="M0 451L15 457.8C30 464.7 60 478.3 90 467.8C120 457.3 150 422.7 180 412.2C210 401.7 240 415.3 270 428.3C300 441.3 330 453.7 360 455.5C390 457.3 420 448.7 435 444.3L450 440L450 0L435 0C420 0 390 0 360 0C330 0 300 0 270 0C240 0 210 0 180 0C150 0 120 0 90 0C60 0 30 0 15 0L0 0Z" fill="#c1d8e1"></path><path d="M0 192L15 204.3C30 216.7 60 241.3 90 240.7C120 240 150 214 180 209.3C210 204.7 240 221.3 270 232.8C300 244.3 330 250.7 360 237.7C390 224.7 420 192.3 435 176.2L450 160L450 0L435 0C420 0 390 0 360 0C330 0 300 0 270 0C240 0 210 0 180 0C150 0 120 0 90 0C60 0 30 0 15 0L0 0Z" fill="#a2c3d2"></path></svg>