<svg id="visual" opacity="60%" viewBox="0 0 960 250" width="960" height="250" xmlns="http://www.w3.org/2000/svg" xmlns:xlink="http://www.w3.org/1999/xlink" version="1.1"><path d="M0 89L26.7 95.7C53.3 102.3 106.7 115.7 160 113.5C213.3 111.3 266.7 93.7 320 90.3C373.3 87 426.7 98 480 99.7C533.3 101.3 586.7 93.7 640 92.3C693.3 91 746.7 96 800 105.7C853.3 115.3 906.7 129.7 933.3 136.8L960 144L960 0L933.3 0C906.7 0 853.3 0 800 0C746.7 0 693.3 0 640 0C586.7 0 533.3 0 480 0C426.7 0 373.3 0 320 0C266.7 0 213.3 0 160 0C106.7 0 53.3 0 26.7 0L0 0Z" fill="#a2c3d2"></path><path d="M0 189L26.7 190.2C53.3 191.3 106.7 193.7 160 197.3C213.3 201 266.7 206 320 203.5C373.3 201 426.7 191 480 184.3C533.3 177.7 586.7 174.3 640 174.8C693.3 175.3 746.7 179.7 800 183.5C853.3 187.3 906.7 190.7 933.3 192.3L960 194L960 142L933.3 134.8C906.7 127.7 853.3 113.3 800 103.7C746.7 94 693.3 89 640 90.3C586.7 91.7 533.3 99.3 480 97.7C426.7 96 373.3 85 320 88.3C266.7 91.7 213.3 109.3 160 111.5C106.7 113.7 53.3 100.3 26.7 93.7L0 87Z" fill="#c1d8e1"></path><path d="M0 251L26.7 251C53.3 251 106.7 251 160 251C213.3 251 266.7 251 320 251C373.3 251 426.7 251 480 251C533.3 251 586.7 251 640 251C693.3 251 746.7 251 800 251C853.3 251 906.7 251 933.3 251L960 251L960 192L933.3 190.3C906.7 188.7 853.3 185.3 800 181.5C746.7 177.7 693.3 173.3 640 172.8C586.7 172.3 533.3 175.7 480 182.3C426.7 189 373.3 199 320 201.5C266.7 204 213.3 199 160 195.3C106.7 191.7 53.3 189.3 26.7 188.2L0 187Z" fill="#e0edf1"></path></svg>